<?xml version="1.0" standalone="no"?>
<!DOCTYPE svg PUBLIC "-//W3C//DTD SVG 20010904//EN"
 "http://www.w3.org/TR/2001/REC-SVG-20010904/DTD/svg10.dtd">
<svg version="1.0" xmlns="http://www.w3.org/2000/svg"
 width="63.000000pt" height="63.000000pt" viewBox="0 0 63.000000 63.000000"
 preserveAspectRatio="xMidYMid meet">

<g transform="translate(0.000000,63.000000) scale(0.100000,-0.100000)"
fill="#000000" stroke="none">
<path d="M217 615 c-89 -33 -172 -122 -197 -210 -30 -106 8 -235 90 -309 64
-58 112 -76 205 -76 102 0 162 26 227 99 79 88 100 203 56 318 -54 146 -236
231 -381 178z m257 -271 c12 -12 13 -20 6 -35 -10 -17 -23 -19 -165 -19 -136
0 -155 2 -164 17 -7 13 -5 23 6 35 14 16 36 18 159 18 116 0 145 -3 158 -16z"/>
</g>
</svg>
